<svg width="100" height="100" viewBox="0 0 100 100" fill="none" xmlns="http://www.w3.org/2000/svg">
<g id=" Fill / arrow-down">
<path id="Verctor" fill-rule="evenodd" clip-rule="evenodd" d="M78.2009 55.667C76.7259 53.9003 74.1009 53.6587 72.3342 55.1337L54.1676 70.2712V20.8337C54.1676 18.5337 52.3009 16.667 50.0009 16.667C47.7009 16.667 45.8342 18.5337 45.8342 20.8337V70.2712L27.6676 55.1337C25.8967 53.6587 23.2717 53.9003 21.8009 55.667C20.3259 57.4337 20.5634 60.0628 22.3342 61.5337L47.3342 82.367C47.5301 82.5337 47.7634 82.6128 47.9801 82.7378C48.1509 82.8378 48.3009 82.9545 48.4884 83.0295C48.9759 83.2212 49.4842 83.3337 50.0009 83.3337C50.5176 83.3337 51.0259 83.2212 51.5134 83.0295C51.7009 82.9545 51.8509 82.8378 52.0217 82.7378C52.2384 82.6128 52.4717 82.5337 52.6676 82.367L77.6676 61.5337C79.4342 60.0628 79.6759 57.4337 78.2009 55.667Z"/>
</g>
</svg>
