<svg width="35" height="35" viewBox="0 0 35 35" fill="none" xmlns="http://www.w3.org/2000/svg">
<path fill-rule="evenodd" clip-rule="evenodd" d="M18.9583 7.29175C18.9583 8.09821 18.305 8.75008 17.5 8.75008C16.695 8.75008 16.0416 8.09821 16.0416 7.29175V4.37508C16.0416 3.56862 16.695 2.91675 17.5 2.91675C18.305 2.91675 18.9583 3.56862 18.9583 4.37508V7.29175ZM18.9583 22.5456C18.9583 22.025 19.2368 21.5423 19.6889 21.2812C21.0379 20.5069 21.875 19.0573 21.875 17.4998C21.875 15.0877 19.912 13.1248 17.5 13.1248C15.0879 13.1248 13.125 15.0877 13.125 17.4998C13.125 19.0573 13.962 20.5069 15.311 21.2812C15.7631 21.5423 16.0416 22.025 16.0416 22.5456V29.1665H18.9583V22.5456ZM10.2083 17.4998C10.2083 13.4792 13.4793 10.2081 17.5 10.2081C21.5206 10.2081 24.7916 13.4792 24.7916 17.4998C24.7916 19.8025 23.692 21.9652 21.875 23.3273V29.1665C21.875 30.775 20.5668 32.0831 18.9583 32.0831H16.0416C14.4331 32.0831 13.125 30.775 13.125 29.1665V23.3273C11.3064 21.9652 10.2083 19.8025 10.2083 17.4998ZM30.625 16.0417H27.7083C26.9018 16.0417 26.25 16.6936 26.25 17.5001C26.25 18.3065 26.9018 18.9584 27.7083 18.9584H30.625C31.4314 18.9584 32.0833 18.3065 32.0833 17.5001C32.0833 16.6936 31.4314 16.0417 30.625 16.0417ZM4.37496 16.0417H7.29163C8.09663 16.0417 8.74996 16.6936 8.74996 17.5001C8.74996 18.3065 8.09663 18.9584 7.29163 18.9584H4.37496C3.56996 18.9584 2.91663 18.3065 2.91663 17.5001C2.91663 16.6936 3.56996 16.0417 4.37496 16.0417ZM11.1704 9.35967L9.07181 7.33258C8.49285 6.77404 7.57119 6.79154 7.00973 7.3705C6.44973 7.948 6.46577 8.87258 7.04473 9.43258L9.14327 11.4582C9.42765 11.7324 9.79223 11.868 10.1568 11.868C10.5389 11.868 10.9195 11.7178 11.2054 11.4217C11.7654 10.8442 11.7493 9.91967 11.1704 9.35967ZM25.9283 7.33506C26.5058 6.77652 27.4333 6.79256 27.9889 7.37006C28.5489 7.94756 28.5328 8.87214 27.9539 9.43069L25.8553 11.4578C25.5739 11.7305 25.2078 11.8676 24.8433 11.8676C24.4612 11.8676 24.0791 11.7174 23.7947 11.4213C23.2347 10.8438 23.2508 9.91923 23.8297 9.36069L25.9283 7.33506Z"/>
</svg>
