<svg width="30" height="30" viewBox="0 0 30 30" fill="none" xmlns="http://www.w3.org/2000/svg">
<path fill-rule="evenodd" clip-rule="evenodd" d="M26.2463 13.7175H26.2501C26.9388 13.7175 27.4988 14.275 27.5001 14.9637C27.5101 18.3025 26.2188 21.4463 23.8638 23.8138C21.5101 26.1813 18.3751 27.49 15.0363 27.5H15.0001C11.6738 27.5 8.54506 26.21 6.18631 23.8638C3.81881 21.51 2.51006 18.375 2.50006 15.0363C2.49006 11.6963 3.78131 8.55375 6.13631 6.18625C8.49006 3.81875 11.6251 2.51 14.9638 2.5C15.9576 2.515 16.9701 2.615 17.9401 2.8475C18.6101 3.01 19.0238 3.685 18.8613 4.35625C18.7001 5.02625 18.0213 5.43875 17.3538 5.27875C16.5776 5.09125 15.7538 5.0125 14.9713 5C12.3001 5.0075 9.79131 6.055 7.90881 7.94875C6.02506 9.8425 4.99256 12.3575 5.00006 15.0287C5.00756 17.7 6.05506 20.2075 7.94881 22.0913C9.83631 23.9675 12.3388 25 15.0001 25H15.0288C17.7001 24.9925 20.2088 23.945 22.0913 22.0513C23.9751 20.1562 25.0076 17.6425 25.0001 14.9713C24.9988 14.2812 25.5563 13.7188 26.2463 13.7175ZM10.3663 14.1161C10.8551 13.6274 11.6451 13.6274 12.1338 14.1161L14.9388 16.9211L22.8101 7.92613C23.2651 7.40987 24.0538 7.35488 24.5738 7.80988C25.0926 8.26363 25.1451 9.05363 24.6901 9.57363L15.9401 19.5736C15.7126 19.8336 15.3876 19.9874 15.0413 19.9999H15.0001C14.6688 19.9999 14.3513 19.8686 14.1163 19.6336L10.3663 15.8836C9.87756 15.3949 9.87756 14.6049 10.3663 14.1161Z" fill="#006FBB"/>
</svg>
