<svg width="35" height="36" viewBox="0 0 35 36" fill="none" xmlns="http://www.w3.org/2000/svg">
<path fill-rule="evenodd" clip-rule="evenodd" d="M21.4442 12.742L15.9259 19.9884L13.5444 16.9464C13.0471 16.3105 12.1313 16.1997 11.4969 16.697C10.8625 17.1928 10.7502 18.1101 11.2475 18.743L14.7928 23.2741C15.0698 23.627 15.4928 23.8326 15.9419 23.8326H15.9521C16.4028 23.8311 16.8286 23.6182 17.1013 23.258L23.7644 14.508C24.253 13.8664 24.129 12.9534 23.4873 12.4649C22.8457 11.9764 21.9298 12.1018 21.4442 12.742ZM27.7083 26.75C27.7083 27.555 27.0535 28.2083 26.25 28.2083H8.75C7.94646 28.2083 7.29167 27.555 7.29167 26.75V9.25C7.29167 8.445 7.94646 7.79167 8.75 7.79167H26.25C27.0535 7.79167 27.7083 8.445 27.7083 9.25V26.75ZM26.25 4.875H8.75C6.33792 4.875 4.375 6.83792 4.375 9.25V26.75C4.375 29.1621 6.33792 31.125 8.75 31.125H26.25C28.6621 31.125 30.625 29.1621 30.625 26.75V9.25C30.625 6.83792 28.6621 4.875 26.25 4.875Z"/>
</svg>
