<svg width="101" height="68" viewBox="0 0 101 68" fill="none" xmlns="http://www.w3.org/2000/svg">
<path d="M91 0H10C4.47715 0 0 4.47715 0 10V57.3333C0 62.8562 4.47715 67.3333 10 67.3333H91C96.5229 67.3333 101 62.8562 101 57.3333V10C101 4.47715 96.5229 0 91 0Z" fill="#2765B2"/>
<path d="M50.4998 7.47852L49.3438 11.0362L51.1226 11.6141L50.4998 7.47852Z" fill="#F8F043"/>
<path d="M50.4998 7.47852L51.6557 11.0362L49.8769 11.6141L50.4998 7.47852Z" fill="#F8F043"/>
<path d="M54.0576 10.0625H50.3169V11.9329L54.0576 10.0625Z" fill="#F8F043"/>
<path d="M54.0576 10.0625L51.0313 12.2613L49.9319 10.7481L54.0576 10.0625Z" fill="#F8F043"/>
<path d="M52.6978 14.2441L51.5419 10.6865L49.763 11.2645L52.6978 14.2441Z" fill="#F8F043"/>
<path d="M52.6978 14.2441L49.6715 12.0454L50.7709 10.5322L52.6978 14.2441Z" fill="#F8F043"/>
<path d="M46.9415 10.0625H50.6822V11.9329L46.9415 10.0625Z" fill="#F8F043"/>
<path d="M46.9415 10.0625L49.9678 12.2613L51.0672 10.7481L46.9415 10.0625Z" fill="#F8F043"/>
<path d="M48.3008 14.2441L49.4568 10.6865L51.2356 11.2645L48.3008 14.2441Z" fill="#F8F043"/>
<path d="M48.3008 14.2441L51.3272 12.0454L50.2278 10.5322L48.3008 14.2441Z" fill="#F8F043"/>
<path d="M50.4998 52.3695L49.3438 55.9272L51.1226 56.5052L50.4998 52.3695Z" fill="#F8F043"/>
<path d="M50.4998 52.3695L51.6557 55.9272L49.8769 56.5052L50.4998 52.3695Z" fill="#F8F043"/>
<path d="M54.0582 54.9514H50.3174V56.8217L54.0582 54.9514Z" fill="#F8F043"/>
<path d="M54.0582 54.9514L51.0318 57.1501L49.9325 55.6369L54.0582 54.9514Z" fill="#F8F043"/>
<path d="M52.6982 59.1349L51.5422 55.5773L49.7634 56.1553L52.6982 59.1349Z" fill="#F8F043"/>
<path d="M52.6982 59.1349L49.6718 56.9362L50.7712 55.423L52.6982 59.1349Z" fill="#F8F043"/>
<path d="M46.9413 54.9514H50.682V56.8217L46.9413 54.9514Z" fill="#F8F043"/>
<path d="M46.9413 54.9514L49.9676 57.1501L51.067 55.6369L46.9413 54.9514Z" fill="#F8F043"/>
<path d="M48.3009 59.1349L49.4569 55.5773L51.2357 56.1553L48.3009 59.1349Z" fill="#F8F043"/>
<path d="M48.3009 59.1349L51.3273 56.9362L50.2279 55.423L48.3009 59.1349Z" fill="#F8F043"/>
<path d="M28.0554 29.9277L26.8995 33.4854L28.6783 34.0634L28.0554 29.9277Z" fill="#F8F043"/>
<path d="M28.0554 29.9277L29.2114 33.4854L27.4325 34.0634L28.0554 29.9277Z" fill="#F8F043"/>
<path d="M31.6134 32.5098H27.8727V34.3801L31.6134 32.5098Z" fill="#F8F043"/>
<path d="M31.6134 32.5098L28.5871 34.7085L27.4877 33.1954L31.6134 32.5098Z" fill="#F8F043"/>
<path d="M30.2536 36.6934L29.0977 33.1357L27.3189 33.7137L30.2536 36.6934Z" fill="#F8F043"/>
<path d="M30.2536 36.6934L27.2273 34.4946L28.3267 32.9814L30.2536 36.6934Z" fill="#F8F043"/>
<path d="M24.4971 32.5098H28.2378V34.3801L24.4971 32.5098Z" fill="#F8F043"/>
<path d="M24.4971 32.5098L27.5234 34.7085L28.6228 33.1954L24.4971 32.5098Z" fill="#F8F043"/>
<path d="M25.8569 36.6934L27.0129 33.1357L28.7917 33.7137L25.8569 36.6934Z" fill="#F8F043"/>
<path d="M25.8569 36.6934L28.8832 34.4946L27.7839 32.9814L25.8569 36.6934Z" fill="#F8F043"/>
<path d="M37.0779 17.2617L40.1042 15.0629L39.0048 13.5497L37.0779 17.2617Z" fill="#F8F043"/>
<path d="M37.0779 17.2617L38.2338 13.704L40.0127 14.282L37.0779 17.2617Z" fill="#F8F043"/>
<path d="M35.7202 13.0742L38.7465 15.2729L39.8459 13.7597L35.7202 13.0742Z" fill="#F8F043"/>
<path d="M35.7202 13.0742H39.461V14.9445L35.7202 13.0742Z" fill="#F8F043"/>
<path d="M39.2774 10.4881L38.1214 14.0458L39.9002 14.6238L39.2774 10.4881Z" fill="#F8F043"/>
<path d="M39.2774 10.4881L40.4333 14.0458L38.6545 14.6238L39.2774 10.4881Z" fill="#F8F043"/>
<path d="M41.4766 17.2558L38.4502 15.057L39.5496 13.5439L41.4766 17.2558Z" fill="#F8F043"/>
<path d="M41.4766 17.2558L40.3206 13.6981L38.5418 14.2761L41.4766 17.2558Z" fill="#F8F043"/>
<path d="M42.8347 13.0742L39.8084 15.2729L38.709 13.7597L42.8347 13.0742Z" fill="#F8F043"/>
<path d="M42.8347 13.0742H39.094V14.9445L42.8347 13.0742Z" fill="#F8F043"/>
<path d="M33.2602 25.4668L32.1043 21.9092L30.3254 22.4872L33.2602 25.4668Z" fill="#F8F043"/>
<path d="M33.2602 25.4668L30.2339 23.2681L31.3333 21.7549L33.2602 25.4668Z" fill="#F8F043"/>
<path d="M28.8635 25.4749L31.8898 23.2762L30.7904 21.763L28.8635 25.4749Z" fill="#F8F043"/>
<path d="M28.8635 25.4749L30.0194 21.9173L31.7983 22.4952L28.8635 25.4749Z" fill="#F8F043"/>
<path d="M27.5051 21.293L30.5314 23.4917L31.6308 21.9786L27.5051 21.293Z" fill="#F8F043"/>
<path d="M27.5051 21.293H31.2458V23.1633L27.5051 21.293Z" fill="#F8F043"/>
<path d="M34.6194 21.2832L31.593 23.482L30.4937 21.9688L34.6194 21.2832Z" fill="#F8F043"/>
<path d="M34.6194 21.2832H30.8786L30.8786 23.1536L34.6194 21.2832Z" fill="#F8F043"/>
<path d="M31.062 18.6953L32.2179 22.253L30.4391 22.831L31.062 18.6953Z" fill="#F8F043"/>
<path d="M31.062 18.6953L29.906 22.253L31.6848 22.831L31.062 18.6953Z" fill="#F8F043"/>
<path d="M34.6203 43.7324H30.8796V45.6028L34.6203 43.7324Z" fill="#F8F043"/>
<path d="M34.6203 43.7324L31.594 45.9312L30.4946 44.418L34.6203 43.7324Z" fill="#F8F043"/>
<path d="M33.2612 47.9121L32.1053 44.3545L30.3264 44.9324L33.2612 47.9121Z" fill="#F8F043"/>
<path d="M33.2612 47.9121L30.2349 45.7134L31.3343 44.2002L33.2612 47.9121Z" fill="#F8F043"/>
<path d="M28.8638 47.9141L31.8901 45.7153L30.7907 44.2021L28.8638 47.9141Z" fill="#F8F043"/>
<path d="M28.8638 47.9141L30.0197 44.3564L31.7985 44.9344L28.8638 47.9141Z" fill="#F8F043"/>
<path d="M31.0626 41.1504L32.2185 44.708L30.4397 45.286L31.0626 41.1504Z" fill="#F8F043"/>
<path d="M31.0626 41.1504L29.9066 44.708L31.6855 45.286L31.0626 41.1504Z" fill="#F8F043"/>
<path d="M27.5044 43.7322H31.2452V45.6026L27.5044 43.7322Z" fill="#F8F043"/>
<path d="M27.5044 43.7322L30.5308 45.9309L31.6301 44.4178L27.5044 43.7322Z" fill="#F8F043"/>
<path d="M42.8357 51.9453H39.0949V53.8157L42.8357 51.9453Z" fill="#F8F043"/>
<path d="M42.8357 51.9453L39.8094 54.1441L38.71 52.6309L42.8357 51.9453Z" fill="#F8F043"/>
<path d="M41.4765 56.125L40.3206 52.5673L38.5418 53.1453L41.4765 56.125Z" fill="#F8F043"/>
<path d="M41.4765 56.125L38.4502 53.9262L39.5496 52.4131L41.4765 56.125Z" fill="#F8F043"/>
<path d="M37.0791 56.1289L40.1054 53.9302L39.006 52.417L37.0791 56.1289Z" fill="#F8F043"/>
<path d="M37.0791 56.1289L38.235 52.5713L40.0139 53.1492L37.0791 56.1289Z" fill="#F8F043"/>
<path d="M39.2773 49.3652L40.4333 52.9229L38.6544 53.5009L39.2773 49.3652Z" fill="#F8F043"/>
<path d="M39.2773 49.3652L38.1214 52.9229L39.9002 53.5009L39.2773 49.3652Z" fill="#F8F043"/>
<path d="M35.7202 51.9473H39.4609V53.8176L35.7202 51.9473Z" fill="#F8F043"/>
<path d="M35.7202 51.9473L38.7465 54.146L39.8459 52.6329L35.7202 51.9473Z" fill="#F8F043"/>
<path d="M72.9445 29.9277L74.1004 33.4854L72.3216 34.0634L72.9445 29.9277Z" fill="#F8F043"/>
<path d="M72.9445 29.9277L71.7885 33.4854L73.5674 34.0634L72.9445 29.9277Z" fill="#F8F043"/>
<path d="M69.3865 32.5098H73.1272V34.3801L69.3865 32.5098Z" fill="#F8F043"/>
<path d="M69.3865 32.5098L72.4128 34.7085L73.5122 33.1954L69.3865 32.5098Z" fill="#F8F043"/>
<path d="M70.7461 36.6934L71.902 33.1357L73.6809 33.7137L70.7461 36.6934Z" fill="#F8F043"/>
<path d="M70.7461 36.6934L73.7724 34.4946L72.673 32.9814L70.7461 36.6934Z" fill="#F8F043"/>
<path d="M76.5031 32.5098H72.7623V34.3801L76.5031 32.5098Z" fill="#F8F043"/>
<path d="M76.5031 32.5098L73.4768 34.7085L72.3774 33.1954L76.5031 32.5098Z" fill="#F8F043"/>
<path d="M75.1433 36.6934L73.9873 33.1357L72.2085 33.7137L75.1433 36.6934Z" fill="#F8F043"/>
<path d="M75.1433 36.6934L72.117 34.4946L73.2163 32.9814L75.1433 36.6934Z" fill="#F8F043"/>
<path d="M63.9221 17.2617L60.8958 15.063L61.9952 13.5498L63.9221 17.2617Z" fill="#F8F043"/>
<path d="M63.9221 17.2617L62.7662 13.7041L60.9874 14.2821L63.9221 17.2617Z" fill="#F8F043"/>
<path d="M65.2796 13.0762L62.2532 15.275L61.1539 13.7618L65.2796 13.0762Z" fill="#F8F043"/>
<path d="M65.2796 13.0762H61.5388V14.9466L65.2796 13.0762Z" fill="#F8F043"/>
<path d="M61.7224 10.49L62.8784 14.0477L61.0995 14.6257L61.7224 10.49Z" fill="#F8F043"/>
<path d="M61.7224 10.49L60.5664 14.0477L62.3453 14.6257L61.7224 10.49Z" fill="#F8F043"/>
<path d="M59.5235 17.2559L62.5498 15.0571L61.4504 13.544L59.5235 17.2559Z" fill="#F8F043"/>
<path d="M59.5235 17.2559L60.6794 13.6982L62.4582 14.2762L59.5235 17.2559Z" fill="#F8F043"/>
<path d="M58.1653 13.0742L61.1916 15.273L62.291 13.7598L58.1653 13.0742Z" fill="#F8F043"/>
<path d="M58.1653 13.0742H61.906V14.9446L58.1653 13.0742Z" fill="#F8F043"/>
<path d="M67.739 25.4688L68.895 21.9111L70.6738 22.4891L67.739 25.4688Z" fill="#F8F043"/>
<path d="M67.739 25.4688L70.7653 23.27L69.6659 21.7568L67.739 25.4688Z" fill="#F8F043"/>
<path d="M72.1367 25.4688L69.1104 23.27L70.2098 21.7568L72.1367 25.4688Z" fill="#F8F043"/>
<path d="M72.1367 25.4688L70.9808 21.9111L69.2019 22.4891L72.1367 25.4688Z" fill="#F8F043"/>
<path d="M73.4955 21.287L70.4691 23.4857L69.3698 21.9726L73.4955 21.287Z" fill="#F8F043"/>
<path d="M73.4955 21.287H69.7547V23.1574L73.4955 21.287Z" fill="#F8F043"/>
<path d="M66.3804 21.2871L69.4067 23.4859L70.5061 21.9727L66.3804 21.2871Z" fill="#F8F043"/>
<path d="M66.3804 21.2871H70.1211V23.1575L66.3804 21.2871Z" fill="#F8F043"/>
<path d="M69.9377 18.7012L68.7818 22.2588L70.5606 22.8368L69.9377 18.7012Z" fill="#F8F043"/>
<path d="M69.9377 18.7012L71.0937 22.2588L69.3149 22.8368L69.9377 18.7012Z" fill="#F8F043"/>
<path d="M66.3794 43.7305H70.1201V45.6008L66.3794 43.7305Z" fill="#F8F043"/>
<path d="M66.3794 43.7305L69.4057 45.9292L70.5051 44.4161L66.3794 43.7305Z" fill="#F8F043"/>
<path d="M67.7388 47.9121L68.8947 44.3545L70.6735 44.9324L67.7388 47.9121Z" fill="#F8F043"/>
<path d="M67.7388 47.9121L70.7651 45.7134L69.6657 44.2002L67.7388 47.9121Z" fill="#F8F043"/>
<path d="M72.1362 47.9141L69.1099 45.7153L70.2093 44.2021L72.1362 47.9141Z" fill="#F8F043"/>
<path d="M72.1362 47.9141L70.9803 44.3564L69.2014 44.9344L72.1362 47.9141Z" fill="#F8F043"/>
<path d="M69.9373 41.1485L68.7813 44.7062L70.5602 45.2842L69.9373 41.1485Z" fill="#F8F043"/>
<path d="M69.9373 41.1485L71.0932 44.7062L69.3144 45.2842L69.9373 41.1485Z" fill="#F8F043"/>
<path d="M73.4947 43.7323H69.7539V45.6027L73.4947 43.7323Z" fill="#F8F043"/>
<path d="M73.4947 43.7323L70.4684 45.931L69.369 44.4179L73.4947 43.7323Z" fill="#F8F043"/>
<path d="M58.1643 51.9473H61.905V53.8176L58.1643 51.9473Z" fill="#F8F043"/>
<path d="M58.1643 51.9473L61.1906 54.146L62.29 52.6329L58.1643 51.9473Z" fill="#F8F043"/>
<path d="M59.5239 56.1289L60.6799 52.5713L62.4587 53.1492L59.5239 56.1289Z" fill="#F8F043"/>
<path d="M59.5239 56.1289L62.5502 53.9302L61.4509 52.417L59.5239 56.1289Z" fill="#F8F043"/>
<path d="M63.9216 56.1309L60.8953 53.9321L61.9947 52.4189L63.9216 56.1309Z" fill="#F8F043"/>
<path d="M63.9216 56.1309L62.7657 52.5732L60.9868 53.1512L63.9216 56.1309Z" fill="#F8F043"/>
<path d="M61.7224 49.3652L60.5665 52.9229L62.3453 53.5009L61.7224 49.3652Z" fill="#F8F043"/>
<path d="M61.7224 49.3652L62.8784 52.9229L61.0995 53.5009L61.7224 49.3652Z" fill="#F8F043"/>
<path d="M65.28 51.9492H61.5393V53.8196L65.28 51.9492Z" fill="#F8F043"/>
<path d="M65.28 51.9492L62.2537 54.148L61.1543 52.6348L65.28 51.9492Z" fill="#F8F043"/>
</svg>
