<svg width="210" height="72" viewBox="0 0 210 72" fill="none" xmlns="http://www.w3.org/2000/svg">
<path d="M45.0345 37.1124V39.1809H36.8655V37.1124C36.8655 34.6869 38.6925 32.7129 40.95 32.7129C43.2075 32.7129 45.0345 34.6869 45.0345 37.1124Z" fill="white"/>
<path d="M35.5215 13.7397C23.226 13.7397 13.2615 23.7042 13.2615 35.9997C13.2615 48.2952 23.226 58.2597 35.5215 58.2597C47.817 58.2597 57.7815 48.2952 57.7815 35.9997C57.792 23.7042 47.8275 13.7397 35.5215 13.7397ZM47.964 46.0902H45.045V42.8457H36.876V46.0902H33.9465V42.8457H23.1V25.9092H35.721V29.5632H26.88V32.7132H32.781V36.0417H26.88V39.1917H33.936V37.1232C33.936 33.0807 37.086 29.7942 40.95 29.7942C44.814 29.7942 47.9535 33.0807 47.9535 37.1232V46.0902H47.964Z" fill="white"/>
<path d="M25.074 63.835C24.9795 63.835 24.8745 63.814 24.78 63.7825C18.4275 61.3255 13.0725 56.716 9.67051 50.794C9.43951 50.395 9.57601 49.891 9.97501 49.6705C10.374 49.4395 10.878 49.576 11.0985 49.975C14.301 55.561 19.3725 59.9185 25.368 62.239C25.788 62.407 26.0085 62.8795 25.8405 63.31C25.7145 63.6355 25.3995 63.835 25.074 63.835Z" fill="white"/>
<path d="M35.5319 65.7882C35.0804 65.7882 34.7024 65.4207 34.7024 64.9587C34.7024 64.4967 35.0699 64.1292 35.5319 64.1292C51.0509 64.1292 63.6719 51.5082 63.6719 35.9892C63.6719 20.4702 51.0509 7.84918 35.5319 7.84918C20.0129 7.84918 7.39191 20.4702 7.39191 35.9892C7.39191 36.4407 7.02441 36.8187 6.56241 36.8187C6.10041 36.8187 5.73291 36.4512 5.73291 35.9892C5.73291 19.5672 19.0994 6.20068 35.5214 6.20068C51.9434 6.20068 65.3099 19.5672 65.3099 35.9892C65.3099 52.4217 51.9539 65.7882 35.5319 65.7882Z" fill="white"/>
<path d="M35.532 71.5315C15.939 71.5315 0 55.5925 0 35.9995C0 26.5075 3.696 17.5825 10.4055 10.873C10.731 10.5475 11.2455 10.5475 11.571 10.873C11.8965 11.1985 11.8965 11.713 11.571 12.0385C5.1765 18.433 1.6485 26.9485 1.6485 35.9995C1.6485 54.679 16.8525 69.883 35.532 69.883C54.2115 69.883 69.4155 54.679 69.4155 35.9995C69.4155 35.548 69.783 35.17 70.245 35.17C70.6965 35.17 71.0745 35.5375 71.0745 35.9995C71.0535 55.5925 55.1145 71.5315 35.532 71.5315Z" fill="white"/>
<path d="M57.8026 10.2118C57.6136 10.2118 57.4246 10.1488 57.2776 10.0228C51.1981 4.93027 43.4701 2.12677 35.5321 2.12677C35.0806 2.12677 34.7026 1.75927 34.7026 1.29727C34.7026 0.845773 35.0701 0.467773 35.5321 0.467773C43.8586 0.467773 51.9646 3.40777 58.3381 8.75227C58.6846 9.04627 58.7371 9.56077 58.4431 9.91777C58.2751 10.1068 58.0441 10.2118 57.8026 10.2118Z" fill="white"/>
<path d="M83.0024 26.8117V24.3757H90.8459V19.8712H83.0024V17.6977H91.9379V12.9727H76.8599V31.5262H92.2844V26.8117H83.0024Z" fill="white"/>
<path d="M112.99 17.3197C112.108 15.9232 110.89 14.8522 109.305 14.1067C107.719 13.3507 105.903 12.9727 103.834 12.9727H94.689V31.5262H103.834C105.903 31.5262 107.719 31.1482 109.305 30.4027C110.88 29.6467 112.108 28.5757 112.99 27.1792C113.862 25.7827 114.303 24.1447 114.303 22.2547C114.303 20.3647 113.862 18.7267 112.99 17.3197ZM106.795 25.4992C105.987 26.2762 104.916 26.6542 103.572 26.6542H100.947V17.8552H103.572C104.916 17.8552 105.987 18.2437 106.795 19.0102C107.593 19.7767 108.003 20.8582 108.003 22.2547C108.003 23.6512 107.593 24.7327 106.795 25.4992Z" fill="white"/>
<path d="M128.352 12.9727V22.9897C128.352 24.3442 128.11 25.3312 127.627 25.9507C127.144 26.5702 126.441 26.8747 125.527 26.8747C124.603 26.8747 123.9 26.5702 123.417 25.9507C122.934 25.3312 122.692 24.3442 122.692 22.9897V12.9727H116.445V23.1787C116.445 25.9507 117.243 28.1032 118.828 29.6467C120.414 31.1797 122.629 31.9462 125.475 31.9462C128.32 31.9462 130.536 31.1797 132.121 29.6467C133.707 28.1032 134.505 25.9507 134.505 23.1787V12.9727H128.352Z" fill="white"/>
<path d="M147.273 26.896C145.971 26.896 144.91 26.476 144.123 25.636C143.325 24.796 142.926 23.6725 142.926 22.255C142.926 20.8375 143.325 19.714 144.123 18.874C144.921 18.034 145.971 17.614 147.273 17.614C148.827 17.614 150.181 18.3385 151.326 19.7875L155.274 16.2595C154.35 15.0625 153.195 14.1385 151.777 13.498C150.36 12.8575 148.753 12.5425 146.958 12.5425C144.994 12.5425 143.23 12.952 141.655 13.771C140.091 14.59 138.852 15.7345 137.959 17.215C137.067 18.685 136.626 20.365 136.626 22.234C136.626 24.1135 137.067 25.783 137.959 27.253C138.852 28.723 140.091 29.878 141.655 30.697C143.23 31.516 144.994 31.9255 146.958 31.9255C148.764 31.9255 150.37 31.6105 151.777 30.97C153.195 30.3295 154.35 29.416 155.274 28.219L151.326 24.691C150.171 26.1715 148.827 26.896 147.273 26.896Z" fill="white"/>
<path d="M169.05 12.9727H162.908L154.802 31.5262H161.165L162.414 28.2922H169.46L170.709 31.5262H177.177L169.05 12.9727ZM164.126 23.7982L165.932 19.1362L167.738 23.7982H164.126Z" fill="white"/>
<path d="M175.833 12.9727V17.8237H181.262V31.5262H187.52V17.8342H192.948V12.9832H175.833V12.9727Z" fill="white"/>
<path d="M200.718 26.8117V24.3757H208.562V19.8712H200.718V17.6977H209.654V12.9727H194.576V31.5262H210V26.8117H200.718Z" fill="white"/>
<path d="M88.851 36.4404H82.8135L74.8545 54.6474H81.102L82.32 51.4764H89.2395L90.4575 54.6474H96.81L88.851 36.4404ZM84.0105 47.0559L85.785 42.4779L87.5595 47.0559H84.0105Z" fill="white"/>
<path d="M109.578 49.6498C108.864 49.9438 108.129 50.0907 107.342 50.0907C106.029 50.0907 104.969 49.6708 104.181 48.8413C103.394 48.0118 102.995 46.9093 102.995 45.5443C102.995 44.1373 103.394 43.0242 104.192 42.2157C104.99 41.4072 106.071 40.9977 107.415 40.9977C108.99 40.9977 110.355 41.6697 111.5 43.0032L115.427 39.5488C114.492 38.4043 113.316 37.5328 111.899 36.9343C110.481 36.3358 108.885 36.0312 107.1 36.0312C105.126 36.0312 103.352 36.4408 101.787 37.2388C100.223 38.0473 98.9941 39.1707 98.1226 40.6197C97.2511 42.0687 96.8101 43.7068 96.8101 45.5443C96.8101 47.3818 97.2511 49.0302 98.1226 50.4687C99.0046 51.9177 100.212 53.0413 101.756 53.8498C103.299 54.6583 105.042 55.0573 106.985 55.0573C108.36 55.0573 109.746 54.8578 111.174 54.4588C112.592 54.0598 113.841 53.4928 114.923 52.7473V45.0507H109.589V49.6498H109.578Z" fill="white"/>
<path d="M123.575 50.0169V47.6229H131.271V43.2024H123.575V41.0709H132.342V36.4404H117.537V54.6474H132.678V50.0169H123.575Z" fill="white"/>
<path d="M147.01 36.4404V44.7144L140.091 36.4404H135.051V54.6474H141.036V46.3839L147.955 54.6474H153.006V36.4404H147.01Z" fill="white"/>
<path d="M165.69 50.1013C164.409 50.1013 163.38 49.6917 162.592 48.8727C161.815 48.0432 161.427 46.9407 161.427 45.5547C161.427 44.1687 161.815 43.0557 162.592 42.2367C163.38 41.4177 164.409 40.9977 165.69 40.9977C167.212 40.9977 168.546 41.7118 169.669 43.1293L173.544 39.6748C172.641 38.4883 171.496 37.5957 170.11 36.9657C168.724 36.3357 167.149 36.0312 165.375 36.0312C163.453 36.0312 161.71 36.4408 160.177 37.2388C158.634 38.0473 157.426 39.1707 156.544 40.6197C155.662 42.0687 155.232 43.7068 155.232 45.5443C155.232 47.3818 155.662 49.0302 156.544 50.4687C157.426 51.9177 158.623 53.0413 160.177 53.8498C161.721 54.6583 163.453 55.0573 165.375 55.0573C167.139 55.0573 168.714 54.7423 170.11 54.1228C171.496 53.5033 172.641 52.6002 173.544 51.4242L169.669 47.9697C168.535 49.3872 167.212 50.1013 165.69 50.1013Z" fill="white"/>
<path d="M187.068 36.4402L183.32 42.7297L179.603 36.4402H173.124L179.991 47.9587V54.6367H186.134V48.0322L193.001 36.4297H187.068V36.4402Z" fill="white"/>
</svg>
